<?xml version="1.0" encoding="utf-8"?>
<!-- Generator: Adobe Illustrator 22.1.0, SVG Export Plug-In . SVG Version: 6.00 Build 0)  -->
<svg version="1.1" id="Layer_1" xmlns="http://www.w3.org/2000/svg" xmlns:xlink="http://www.w3.org/1999/xlink" x="0px" y="0px"
	 viewBox="0 0 219.6 152.7" style="enable-background:new 0 0 219.6 152.7;" xml:space="preserve">
<style type="text/css">
	.st0{fill:#FFFFFF;}
	.st1{fill-rule:evenodd;clip-rule:evenodd;fill:#364154;}
	.st2{fill-rule:evenodd;clip-rule:evenodd;fill:#384D68;}
	.st3{fill-rule:evenodd;clip-rule:evenodd;fill:#3D5C82;}
	.st4{fill-rule:evenodd;clip-rule:evenodd;fill:#4C8BD6;}
	.st5{fill-rule:evenodd;clip-rule:evenodd;fill:#4679B7;}
</style>
<g>
	<path class="st0" d="M59.7,143.2l1.8,1.9l-2.1,1.8l-1.8-2c-1.5,0.9-3.3,1.3-5.3,1.3c-6,0-10.1-4.4-10.1-10.3
		c0-5.9,4.1-10.3,10.1-10.3s10.1,4.4,10.1,10.3C62.4,138.8,61.4,141.3,59.7,143.2z M55.6,142.8l-2.7-2.9l2.1-1.8l2.6,2.9
		c1-1.4,1.6-3.1,1.6-5.1c0-4.4-2.8-7.7-7-7.7c-4.3,0-7,3.3-7,7.7c0,4.4,2.7,7.7,7,7.7C53.6,143.6,54.7,143.3,55.6,142.8z"/>
	<path class="st0" d="M75.7,143.9c-1.1,1.2-2.9,2.3-5.2,2.3c-3.1,0-4.6-1.6-4.6-4.6v-10.2h2.7v9.3c0,2.4,1.2,3.1,3.1,3.1
		c1.7,0,3.2-1,4-2v-10.4h2.7v14.5h-2.7V143.9z"/>
	<path class="st0" d="M91.7,144.3c-1.1,1.3-2.8,1.9-4.7,1.9c-2.4,0-5-1.6-5-4.8c0-3.3,2.6-4.7,5-4.7c1.9,0,3.6,0.6,4.7,1.9v-2.4
		c0-1.8-1.5-2.9-3.5-2.9c-1.6,0-3.1,0.6-4.3,1.9l-1.2-1.9c1.6-1.6,3.6-2.4,5.9-2.4c3.1,0,5.8,1.4,5.8,5.1v9.8h-2.7V144.3z
		 M91.7,140.2c-0.8-1.1-2.2-1.6-3.7-1.6c-2,0-3.3,1.2-3.3,2.9s1.4,2.9,3.3,2.9c1.5,0,2.9-0.6,3.7-1.6V140.2z"/>
	<path class="st0" d="M98.7,142c1,1.1,2.9,2.1,4.9,2.1c2,0,3.1-0.8,3.1-2.1c0-1.4-1.6-1.9-3.5-2.3c-2.5-0.6-5.3-1.2-5.3-4.3
		c0-2.3,2-4.3,5.5-4.3c2.5,0,4.3,0.9,5.5,2.1l-1.2,1.9c-0.8-1-2.5-1.8-4.3-1.8s-3,0.7-3,1.9c0,1.3,1.6,1.7,3.4,2.1
		c2.5,0.6,5.5,1.3,5.5,4.6c0,2.5-2,4.4-5.8,4.4c-2.4,0-4.6-0.8-6-2.3L98.7,142z"/>
	<path class="st0" d="M121.7,144.3c-1.1,1.3-2.8,1.9-4.7,1.9c-2.4,0-5-1.6-5-4.8c0-3.3,2.6-4.7,5-4.7c1.9,0,3.6,0.6,4.7,1.9v-2.4
		c0-1.8-1.5-2.9-3.5-2.9c-1.6,0-3.1,0.6-4.3,1.9l-1.2-1.9c1.6-1.6,3.6-2.4,5.9-2.4c3.1,0,5.8,1.4,5.8,5.1v9.8h-2.7V144.3z
		 M121.7,140.2c-0.8-1.1-2.2-1.6-3.7-1.6c-2,0-3.3,1.2-3.3,2.9s1.4,2.9,3.3,2.9c1.5,0,2.9-0.6,3.7-1.6V140.2z"/>
	<path class="st0" d="M128.7,131.4h2.7v2.2c1.1-1.4,2.8-2.5,4.7-2.5v2.7c-0.3-0.1-0.6-0.1-0.9-0.1c-1.3,0-3.2,1-3.8,2.1v10.1h-2.7
		V131.4z"/>
	<path class="st0" d="M138.9,125.9h7.1c6.2,0,10.4,4.3,10.4,10c0,5.8-4.1,10-10.4,10h-7.1V125.9z M146,143.2c4.6,0,7.3-3.3,7.3-7.3
		c0-4.1-2.6-7.4-7.3-7.4h-4.1v14.7H146z"/>
	<path class="st0" d="M160,125.9h9.4c3.6,0,5.6,2.2,5.6,5.1c0,2.5-1.7,4.2-3.5,4.6c2.1,0.3,3.9,2.5,3.9,4.9c0,3.1-2.1,5.4-5.8,5.4
		H160V125.9z M168.9,134.4c2,0,3.1-1.3,3.1-2.9c0-1.7-1.1-2.9-3.1-2.9H163v5.8H168.9z M169,143.2c2.1,0,3.4-1.2,3.4-3.1
		c0-1.7-1.1-3.1-3.4-3.1h-6v6.2H169z"/>
</g>
<g>
	<g>
		<g>
			<path class="st1" d="M205.4,52.8c1.8,2,3.6,3.9,5.4,5.8c2.5,2.7,2.5,6.8,0.1,9.6c-0.5,0.5-0.9,1-1.4,1.6c-5,1.6-10.1,3-15,4.1
				c-1-0.9-1.9-1.9-2.9-2.8C196.4,65.4,201,59.4,205.4,52.8L205.4,52.8z M187.8,75.1c0.6-0.6,1.1-1.2,1.7-1.9l1.3,1.3
				C189.8,74.8,188.8,75,187.8,75.1L187.8,75.1z"/>
			<g>
				<path class="st1" d="M90.9,113.2c4.1,0.5,8.3,0.8,12.4,0.9c-3.9-0.4-7.8-1.1-11.6-1.9L90.9,113.2L90.9,113.2z"/>
				<path class="st1" d="M71.2,109.3c5.4,1.5,10.8,2.6,16.2,3.4l1.1-1.3c-5.1-1.3-10-2.9-14.8-4.8C72.8,107.5,72,108.4,71.2,109.3
					L71.2,109.3z"/>
				<path class="st1" d="M52.5,102.7c5,2.2,10.2,4.1,15.3,5.7c0.9-1,1.8-2,2.8-3c-4.7-2.1-9.3-4.5-13.7-7.2
					C55.5,99.7,54,101.2,52.5,102.7L52.5,102.7z"/>
				<path class="st1" d="M35.4,93.5c4.6,3,9.4,5.6,14.2,7.9c1.6-1.6,3.1-3.2,4.7-4.9c-4.3-2.8-8.5-5.9-12.5-9.3
					C39.7,89.3,37.6,91.4,35.4,93.5L35.4,93.5z"/>
				<path class="st1" d="M20.1,82.1c4.1,3.6,8.4,6.8,12.7,9.7c2.3-2.2,4.5-4.4,6.7-6.6c-3.9-3.4-7.6-7.1-11.2-11.1
					C25.6,76.8,22.9,79.5,20.1,82.1L20.1,82.1z"/>
				<path class="st1" d="M12.4,53.7c-1.8,2-3.6,3.9-5.4,5.8c-2.5,2.7-2.5,6.8-0.1,9.6c3.5,3.9,7.1,7.6,10.8,10.9
					c2.9-2.7,5.7-5.4,8.5-8.1C21.4,66.4,16.8,60.3,12.4,53.7L12.4,53.7z"/>
			</g>
		</g>
	</g>
	<g>
		<path class="st2" d="M194.3,41.2c3.1,3.2,6.1,6.4,9,9.5c-4.4,6.6-9,12.7-13.9,18.3c-2.9-3-5.8-6-8.5-9
			C185.7,54.2,190.1,47.9,194.3,41.2L194.3,41.2z M187.5,71.2c-1.4,1.6-2.9,3.1-4.4,4.6c-4,0.6-7.9,0.9-11.8,1.1c-1-1.1-2-2.2-3-3.3
			c3.7-3.5,7.3-7.3,10.7-11.4C181.8,65.3,184.6,68.3,187.5,71.2L187.5,71.2z M164.6,77.2c0.5-0.5,1-0.9,1.5-1.4l1.2,1.4
			C166.4,77.1,165.5,77.2,164.6,77.2L164.6,77.2z"/>
		<path class="st2" d="M155.3,106.1c1.1-0.3,2.2-0.7,3.3-1c-1,0.2-2,0.4-3,0.6L155.3,106.1L155.3,106.1z"/>
		<path class="st2" d="M131.9,111c6.1-0.8,12.4-2,18.7-3.6l0.7-1c-5.9,0.9-11.6,1.5-17.3,1.6C133.3,109,132.6,110,131.9,111
			L131.9,111z"/>
		<path class="st2" d="M112.6,111.9c5,0.2,10,0,15.2-0.5c0.8-1.1,1.7-2.2,2.5-3.4c-4.8,0-9.5-0.3-14.1-0.9
			C114.9,108.8,113.8,110.4,112.6,111.9L112.6,111.9z"/>
		<path class="st2" d="M93.7,109.7c4.9,1,10,1.7,15.1,2c1.3-1.7,2.6-3.3,3.8-5c-4.8-0.7-9.5-1.8-14.1-3.1
			C97,105.7,95.4,107.7,93.7,109.7L93.7,109.7z"/>
		<path class="st2" d="M75.6,104.3c4.8,1.9,9.8,3.5,14.8,4.7c1.7-2.1,3.4-4.2,5-6.3c-2.8-0.9-5.5-1.9-8.2-3
			c-1.9-0.8-3.7-1.6-5.6-2.5l-0.6,0.7C79.3,100,77.5,102.2,75.6,104.3L75.6,104.3z"/>
		<path class="st2" d="M58.9,96c4.5,2.7,9,5.1,13.7,7.1c2.1-2.4,4.1-4.8,6.1-7.2l0.1-0.1c-4.4-2.3-8.7-4.8-12.9-7.7
			C63.7,90.8,61.3,93.4,58.9,96L58.9,96z"/>
		<path class="st2" d="M43.8,85.2c4,3.4,8.2,6.5,12.5,9.2c2.5-2.7,4.9-5.3,7.2-8.1c-4.1-2.9-8-6.1-11.8-9.6
			C49.1,79.5,46.5,82.4,43.8,85.2L43.8,85.2z"/>
		<path class="st2" d="M30.3,72.1c3.6,4,7.3,7.6,11.2,11c2.7-2.8,5.4-5.7,8-8.6c-3.7-3.5-7.3-7.3-10.7-11.4
			C36,66.2,33.2,69.2,30.3,72.1L30.3,72.1z"/>
		<path class="st2" d="M22.9,42.2c-2.9,3.3-5.8,6.6-8.6,9.9c4.6,6.4,9.5,12.3,14.6,17.7c2.8-3.1,5.5-6.2,8.1-9.4
			C32.1,54.8,27.4,48.7,22.9,42.2L22.9,42.2z"/>
	</g>
	<g>
		<g>
			<path class="st3" d="M164.2,73.6c-1.3,1.2-2.6,2.3-3.9,3.4c-4.8-0.2-9.5-0.7-14-1.4c-0.9-1.2-1.9-2.4-2.8-3.6
				c3.8-3.1,7.5-6.4,11.1-9.9c1.1,1.3,2.1,2.7,3.2,4C159.9,68.7,162,71.2,164.2,73.6L164.2,73.6z"/>
			<path class="st3" d="M177.1,60.2c-3.4,4.1-7,7.9-10.7,11.4c-2.1-2.4-4.2-4.9-6.3-7.4c-1.2-1.4-2.3-2.8-3.4-4.3
				c3.5-3.7,6.9-7.6,10.2-11.8c0.8,1,1.6,1.9,2.3,2.9C171.8,54.1,174.4,57.2,177.1,60.2L177.1,60.2z"/>
			<path class="st3" d="M180.9,27.6c3.7,3.7,7.6,7.6,11.3,11.5c-4.2,6.7-8.6,13-13.2,18.7c-2.5-2.9-5-5.7-7.4-8.7
				c-0.9-1.1-1.9-2.3-2.8-3.4C173.1,40.1,177.1,34,180.9,27.6L180.9,27.6z"/>
		</g>
		<g>
			<path class="st3" d="M157.9,102.3c4.2-0.9,8.4-2,12.6-3.3l2.6-3.1c-4.1,0.8-8.2,1.5-12.2,2C159.9,99.3,158.9,100.8,157.9,102.3
				L157.9,102.3z"/>
			<path class="st3" d="M136.1,105.1c5.7-0.3,11.6-0.9,17.5-2c1.1-1.6,2.3-3.3,3.4-4.9c-5.6,0.5-11,0.6-16.4,0.3
				C139.2,100.7,137.7,102.9,136.1,105.1L136.1,105.1z"/>
			<path class="st3" d="M118.1,104.6c4.7,0.5,9.4,0.7,14.3,0.7c1.6-2.3,3.2-4.6,4.8-6.9c-4.5-0.4-9-1-13.4-1.9
				C121.9,99.2,120,101.9,118.1,104.6L118.1,104.6z"/>
			<path class="st3" d="M100.4,101.2c4.6,1.3,9.4,2.3,14.2,3c2-2.8,4-5.6,5.9-8.4c-4.6-1.1-9-2.4-13.4-4
				C105,94.9,102.7,98.1,100.4,101.2L100.4,101.2z"/>
			<path class="st3" d="M83.5,94.9c1.6,0.8,3.2,1.5,4.8,2.1c2.9,1.2,5.9,2.3,8.9,3.2c2.4-3.2,4.7-6.4,6.9-9.6l-1.1-0.4
				c-4-1.7-7.9-3.5-11.7-5.7C88.9,88,86.3,91.5,83.5,94.9L83.5,94.9z"/>
			<path class="st3" d="M67.9,85.9c4.2,2.8,8.5,5.4,12.9,7.6c2.8-3.4,5.4-6.9,8-10.5c-4.1-2.4-8.2-5.2-12.1-8.2
				c-2.2,2.9-4.4,5.7-6.7,8.5C69.3,84.2,68.6,85,67.9,85.9L67.9,85.9z"/>
			<path class="st3" d="M53.6,74.5c3.8,3.5,7.7,6.7,11.7,9.6c0.8-0.9,1.5-1.8,2.3-2.7c2.3-2.8,4.5-5.6,6.7-8.4
				c-3.8-3.1-7.5-6.4-11.1-9.9c-1.1,1.3-2.1,2.7-3.2,4C57.9,69.6,55.8,72.1,53.6,74.5L53.6,74.5z"/>
			<path class="st3" d="M40.7,61.1c3.4,4.1,7,7.9,10.7,11.4c2.1-2.4,4.2-4.9,6.3-7.4c1.2-1.4,2.3-2.8,3.4-4.3
				c-3.5-3.7-6.9-7.6-10.2-11.8c-0.8,1-1.6,1.9-2.3,2.9C46,55,43.4,58.1,40.7,61.1L40.7,61.1z"/>
			<path class="st3" d="M36.9,28.5c-3.7,3.7-7.6,7.6-11.3,11.5c4.2,6.7,8.6,13,13.2,18.7c2.5-2.9,5-5.7,7.4-8.7
				c0.9-1.1,1.9-2.3,2.8-3.4C44.7,41,40.7,34.9,36.9,28.5L36.9,28.5z"/>
		</g>
	</g>
	<g>
		<g>
			<path class="st4" d="M146.5,13.1c0.5-1.1,1-2.3,1.5-3.5c0.9-2.2,2.7-3.7,5-4.2c2.3-0.5,4.6,0,6.4,1.6c2,1.8,4.2,3.8,6.6,6
				c-3.1,5.5-6.3,10.6-9.7,15.5C152.8,23.5,149.6,18.3,146.5,13.1L146.5,13.1z"/>
			<path class="st4" d="M136.9,31.4c2.8-4.6,5.5-9.5,8-15c3,5,6.1,9.9,9.4,14.7c-3.1,4.3-6.4,8.4-9.8,12.2
				C141.9,39.4,139.4,35.5,136.9,31.4L136.9,31.4z"/>
			<path class="st4" d="M126.2,46.4c3.1-3.6,6.1-7.7,8.9-12.1c2.4,3.9,4.8,7.6,7.3,11.4c-3.4,3.6-6.8,7-10.4,10.2
				C130,52.7,128.1,49.6,126.2,46.4L126.2,46.4z"/>
			<path class="st4" d="M113.8,58.8c3.5-2.9,6.9-6.3,10.3-10c1.8,3,3.7,6.1,5.7,9c-3.6,3-7.3,5.8-11.1,8.3l-0.7-0.4
				C116.5,63.4,115.1,61.1,113.8,58.8L113.8,58.8z"/>
			<path class="st4" d="M111,61l0.4-0.3l0.6,1C111.7,61.5,111.3,61.3,111,61L111,61z"/>
			<path class="st4" d="M71.3,14c-0.5-1.1-1-2.3-1.5-3.5c-0.9-2.2-2.7-3.7-5-4.2c-2.3-0.5-4.6,0-6.4,1.6c-2,1.8-4.2,3.8-6.6,6
				c3.1,5.5,6.3,10.6,9.7,15.5C65,24.4,68.3,19.3,71.3,14L71.3,14z"/>
			<path class="st4" d="M80.9,32.3c-2.8-4.6-5.5-9.5-8-15c-3,5-6.1,9.9-9.4,14.7c3.1,4.3,6.4,8.4,9.8,12.2
				C75.9,40.3,78.4,36.4,80.9,32.3L80.9,32.3z"/>
			<path class="st4" d="M91.6,47.3c-3.1-3.6-6.1-7.7-8.9-12.1c-2.4,3.9-4.8,7.6-7.3,11.4c3.4,3.6,6.8,7,10.4,10.2
				C87.8,53.6,89.7,50.5,91.6,47.3L91.6,47.3z"/>
			<path class="st4" d="M104,59.7c-3.5-2.9-6.9-6.3-10.3-10c-1.8,3-3.7,6.1-5.7,9c3.7,3.1,7.5,5.9,11.4,8.5
				C101,64.8,102.5,62.2,104,59.7L104,59.7z"/>
			<path class="st4" d="M117.6,69.1c-3.8-2.1-7.5-4.6-11.2-7.4c-1.4,2.4-2.9,4.9-4.4,7.2c3.9,2.4,7.9,4.6,11.9,6.5
				C115.2,73.3,116.4,71.2,117.6,69.1L117.6,69.1z"/>
			<path class="st4" d="M132.8,75.8c-4.2-1.4-8.4-3.1-12.6-5.3c-1.1,2.1-2.3,4.1-3.5,6.1c0.6,0.3,1.2,0.5,1.7,0.7
				c3.7,1.5,7.4,2.8,11.2,3.9C130.7,79.5,131.8,77.6,132.8,75.8L132.8,75.8z"/>
			<path class="st4" d="M148.6,79.5c-4.2-0.6-8.5-1.5-12.8-2.8c-1,1.8-2,3.6-3.1,5.4c4.2,1.1,8.6,1.9,13,2.5
				C146.7,82.9,147.7,81.2,148.6,79.5L148.6,79.5z"/>
			<path class="st4" d="M168,80.4c-5.1,0.2-10.5,0.1-16.1-0.5c-1,1.7-1.9,3.4-2.9,5.1c5.2,0.5,10.6,0.7,16.1,0.5
				C166,83.8,167,82.1,168,80.4L168,80.4z"/>
			<path class="st4" d="M187.7,78c-4.7,0.9-10.1,1.8-16.1,2.2c-1,1.7-2,3.5-3,5.2c4.9-0.3,9.8-0.9,14.8-1.8l3.3-4L187.7,78L187.7,78
				z"/>
			<path class="st4" d="M205.8,73.8c-1.2-0.1-5.9,1.5-12.8,3.1l-3.7,4.4l-0.7,1.3c3.9-0.9,7.9-1.9,11.9-3.1
				C202.3,77.6,204.1,75.7,205.8,73.8L205.8,73.8z"/>
		</g>
	</g>
	<g>
		<g>
			<g>
				<path class="st5" d="M139.4,71.6c-0.9,0.7-1.7,1.3-2.6,1.9c-5.5-1.5-10.6-3.5-15.3-5.9c3.4-2.3,6.6-4.8,9.8-7.4
					C133.9,64.1,136.6,67.9,139.4,71.6L139.4,71.6z"/>
				<path class="st5" d="M152.8,59.9c-3.6,3.6-7.2,6.9-11,9.9c-2.8-3.8-5.5-7.6-8.1-11.5c3.6-3.2,7.1-6.5,10.5-10.2
					C146.9,52.1,149.8,56,152.8,59.9L152.8,59.9z"/>
				<path class="st5" d="M165.1,45.9c-3.3,4.2-6.7,8.1-10.2,11.8c-3-3.9-5.9-7.9-8.7-11.9c3.4-3.8,6.7-7.9,9.8-12.1
					C159,37.8,162,41.9,165.1,45.9L165.1,45.9z"/>
				<path class="st5" d="M168.1,15c3.4,3.2,7,6.7,10.8,10.4c-3.7,6.4-7.7,12.3-11.8,17.9c-3.1-4-6.2-8.1-9.1-12.3
					C161.5,26,164.9,20.7,168.1,15L168.1,15z"/>
			</g>
			<g>
				<path class="st5" d="M183.8,90.3c2-0.6,3.9-1.2,5.9-1.8c2.1-1.5,4.1-3.1,6-4.7c-3.1,0.8-6.1,1.5-9.1,2.1
					C185.7,87.4,184.8,88.8,183.8,90.3L183.8,90.3z"/>
				<path class="st5" d="M163,94.7c4.3-0.6,8.7-1.4,13.2-2.4l4.5-5.4c-4.6,0.7-9.2,1.2-13.7,1.4C165.6,90.5,164.3,92.6,163,94.7
					L163,94.7z"/>
				<path class="st5" d="M142.4,95.7c5.4,0.2,11,0,16.6-0.6c1.4-2.2,2.8-4.4,4.2-6.7c-5.4,0.1-10.7-0.1-15.9-0.7
					C145.8,90.4,144.1,93.1,142.4,95.7L142.4,95.7z"/>
				<path class="st5" d="M125.5,93.8c4.4,0.8,8.9,1.4,13.5,1.7c1.8-2.7,3.5-5.4,5.1-8.2c-4.4-0.6-8.7-1.5-12.9-2.6
					C129.3,87.8,127.4,90.8,125.5,93.8L125.5,93.8z"/>
				<path class="st5" d="M108.8,89.3c4.4,1.6,8.9,2.9,13.5,3.9c2-3.1,4-6.2,5.9-9.4c-3.6-1.1-7.2-2.4-10.8-3.8
					c-0.7-0.3-1.4-0.6-2.1-0.9C113.2,82.6,111,85.9,108.8,89.3L108.8,89.3z"/>
				<path class="st5" d="M93.1,82.2c3.6,2,7.3,3.8,11.1,5.4c0.5,0.2,1.1,0.4,1.6,0.6c2.3-3.4,4.5-6.8,6.6-10.3
					c-4.1-1.9-8.1-4.1-12-6.5C98.1,75,95.7,78.6,93.1,82.2L93.1,82.2z"/>
				<path class="st5" d="M78.4,72.6c3.9,3,7.9,5.7,12.1,8.1c2.6-3.6,5.1-7.3,7.5-11c-3.9-2.6-7.7-5.4-11.4-8.5
					C83.9,65,81.2,68.8,78.4,72.6L78.4,72.6z"/>
				<path class="st5" d="M65,60.8c3.6,3.6,7.2,6.9,11,9.9c2.8-3.8,5.5-7.6,8.1-11.5C80.6,56,77.1,52.6,73.7,49
					C70.9,53,68,56.9,65,60.8L65,60.8z"/>
				<path class="st5" d="M52.7,46.8c3.3,4.2,6.7,8.1,10.2,11.8c3-3.9,5.9-7.9,8.7-11.9c-3.4-3.8-6.7-7.8-9.8-12.1
					C58.9,38.7,55.8,42.8,52.7,46.8L52.7,46.8z"/>
				<path class="st5" d="M49.7,15.9c-3.4,3.2-7,6.7-10.8,10.4c3.7,6.4,7.7,12.3,11.8,17.9c3.1-4,6.2-8.1,9.1-12.3
					C56.3,26.9,52.9,21.6,49.7,15.9L49.7,15.9z"/>
			</g>
		</g>
	</g>
</g>
</svg>
